<?xml version="1.0" standalone="no"?>
<!DOCTYPE svg PUBLIC "-//W3C//DTD SVG 20010904//EN"
 "http://www.w3.org/TR/2001/REC-SVG-20010904/DTD/svg10.dtd">
<svg version="1.0" xmlns="http://www.w3.org/2000/svg"
 width="1515.000000pt" height="491.000000pt" viewBox="0 0 1515.000000 491.000000"
 preserveAspectRatio="xMidYMid meet">

<g transform="translate(0.000000,491.000000) scale(0.100000,-0.100000)"
fill="#000000" stroke="none">
<path d="M1605 4900 c-90 -12 -143 -45 -202 -127 -74 -104 -86 -232 -31 -335
60 -113 158 -171 288 -170 118 0 195 35 257 116 47 61 66 120 65 201 -1 84
-16 131 -62 189 -84 104 -180 143 -315 126z"/>
<path d="M3115 4378 c-61 -11 -120 -50 -159 -106 -59 -84 -45 -219 31 -303 88
-97 263 -97 359 0 47 47 68 97 68 166 -1 165 -133 272 -299 243z"/>
<path d="M1559 3973 c-49 -30 -60 -64 -70 -212 -10 -156 1 -309 26 -347 26
-40 90 -76 134 -76 55 1 136 44 158 85 15 27 18 61 18 242 0 204 -1 211 -24
249 -35 57 -74 76 -151 76 -42 0 -74 -6 -91 -17z"/>
<path d="M2545 3783 c-30 -7 -100 -68 -156 -135 -41 -49 -49 -66 -49 -99 0
-67 52 -129 109 -129 58 0 153 78 222 180 36 53 36 83 4 126 -36 47 -83 67
-130 57z"/>
<path d="M702 3741 c-55 -14 -142 -79 -248 -185 -212 -213 -332 -415 -410
-693 -23 -82 -26 -112 -35 -443 -11 -384 -4 -1079 12 -1200 25 -192 197 -391
393 -453 70 -21 81 -22 581 -22 l510 0 45 25 c61 34 90 87 90 164 0 76 -31
132 -97 174 l-48 30 -484 5 -485 6 -35 29 c-20 16 -48 47 -63 69 l-28 41 -1
643 c-2 701 1 751 52 903 70 211 152 319 426 566 75 67 94 115 74 188 -29 112
-140 180 -249 153z"/>
<path d="M2824 3391 c-86 -50 -152 -150 -138 -208 4 -15 49 -109 99 -208 125
-245 136 -289 146 -570 4 -121 8 -336 8 -478 1 -147 5 -266 11 -277 17 -31
364 -228 374 -212 9 14 -13 1196 -24 1280 -30 234 -222 617 -339 676 -55 28
-83 28 -137 -3z"/>
<path d="M1522 2900 c-140 -15 -316 -124 -428 -264 -257 -320 -194 -792 141
-1055 80 -63 296 -211 342 -235 70 -35 179 -4 218 64 19 33 20 52 20 381 l0
345 -28 43 c-58 88 -172 106 -246 38 -38 -35 -51 -80 -58 -198 -3 -60 -9 -112
-13 -114 -15 -9 -100 82 -121 129 -65 148 -3 348 132 425 218 124 470 -2 519
-260 11 -56 45 -122 78 -152 56 -51 161 -40 223 22 96 96 86 307 -23 488 -79
132 -255 272 -397 317 -88 28 -244 39 -359 26z"/>
<path d="M4750 2863 c-173 -12 -304 -95 -374 -234 -51 -102 -58 -169 -54 -487
4 -257 6 -282 27 -340 62 -170 203 -274 392 -289 208 -16 373 78 460 261 21
45 41 98 45 119 l6 37 -109 0 -110 0 -12 -41 c-15 -50 -71 -113 -125 -142 -57
-30 -165 -30 -222 0 -47 25 -87 68 -112 122 -15 31 -17 73 -17 316 l0 280 28
57 c44 90 109 128 215 128 56 0 76 -5 118 -30 54 -31 108 -98 119 -151 l7 -29
113 0 114 0 -15 53 c-36 125 -110 236 -198 297 -75 51 -193 80 -296 73z"/>
<path d="M5490 2276 c0 -604 0 -611 47 -674 40 -53 94 -75 201 -80 l92 -4 0
106 0 106 -49 0 c-86 0 -81 -33 -81 582 l0 538 -105 0 -105 0 0 -574z"/>
<path d="M6020 2745 l0 -105 110 0 110 0 0 105 0 105 -110 0 -110 0 0 -105z"/>
<path d="M7430 2185 l0 -665 110 0 110 0 0 119 0 119 76 91 c42 50 79 91 82
91 4 0 58 -95 121 -210 l114 -210 119 0 c65 0 118 2 118 5 0 3 -72 132 -161
286 -88 155 -163 287 -166 295 -3 8 52 82 129 176 74 90 138 169 142 176 6 9
-19 12 -108 12 l-115 0 -173 -221 -173 -222 -3 412 -2 411 -110 0 -110 0 0
-665z"/>
<path d="M8260 2750 l0 -100 185 0 185 0 0 -565 0 -565 110 0 110 0 0 565 0
565 185 0 185 0 0 100 0 100 -480 0 -480 0 0 -100z"/>
<path d="M9330 2185 l0 -665 110 0 111 0 -7 263 c-4 144 -4 292 0 329 13 118
62 163 176 163 79 0 118 -21 152 -79 23 -41 23 -42 20 -358 l-2 -318 110 0
110 0 0 318 c0 407 -13 475 -107 563 -58 56 -98 72 -188 77 -102 5 -167 -19
-225 -86 l-40 -45 0 252 0 251 -110 0 -110 0 0 -665z"/>
<path d="M12809 2823 c-6 -16 -117 -309 -246 -653 -130 -344 -238 -631 -241
-638 -3 -10 21 -12 113 -10 l118 3 28 85 c16 47 36 104 45 128 l16 42 256 -2
257 -3 45 -127 45 -128 116 0 117 0 -249 661 c-137 364 -249 663 -249 665 0 2
-36 4 -80 4 -79 0 -81 -1 -91 -27z m186 -587 c48 -136 85 -250 82 -252 -2 -3
-85 -3 -184 -2 l-181 3 92 262 c50 144 94 256 98 249 4 -7 46 -124 93 -260z"/>
<path d="M13650 2185 l0 -665 110 0 110 0 0 665 0 665 -110 0 -110 0 0 -665z"/>
<path d="M6757 2470 c-60 -15 -135 -58 -178 -101 -76 -76 -109 -188 -109 -369
0 -196 36 -307 127 -390 69 -63 141 -90 258 -97 144 -8 260 27 346 104 l40 36
-72 73 -71 72 -44 -33 c-90 -69 -243 -66 -311 7 -42 45 -53 89 -53 220 0 151
9 186 59 231 82 74 205 76 309 6 l44 -29 70 67 70 68 -51 47 c-74 68 -140 90
-281 94 -63 2 -132 -1 -153 -6z"/>
<path d="M10609 2462 c-113 -38 -183 -108 -230 -231 -27 -71 -39 -306 -19
-403 27 -138 109 -242 226 -287 155 -60 366 -26 494 78 40 34 40 33 -49 110
l-57 49 -41 -27 c-87 -58 -221 -62 -301 -8 -35 24 -82 106 -82 144 l0 23 296
0 297 0 -6 113 c-11 218 -83 359 -215 424 -49 24 -71 28 -157 30 -76 2 -113
-1 -156 -15z m201 -182 c65 -18 130 -111 130 -186 l0 -24 -196 0 -197 0 7 41
c8 48 36 107 63 131 47 43 123 58 193 38z"/>
<path d="M11750 2469 c-44 -18 -101 -62 -126 -98 l-24 -36 0 68 0 67 -110 0
-110 0 0 -475 0 -475 110 0 110 0 0 323 c0 287 2 326 18 357 52 105 243 104
307 -2 19 -31 20 -54 23 -355 l3 -323 105 0 104 0 0 325 c0 199 -4 345 -11
377 -26 124 -108 223 -206 247 -52 13 -159 13 -193 0z"/>
<path d="M6020 1995 l0 -475 110 0 110 0 0 475 0 475 -110 0 -110 0 0 -475z"/>
<path d="M2155 1806 c-16 -7 -41 -26 -55 -41 l-25 -27 -7 -351 c-3 -194 -6
-365 -7 -380 l-1 -28 -45 27 c-75 44 -136 31 -188 -38 -37 -50 -27 -95 47
-215 80 -127 249 -365 341 -480 130 -162 315 -240 506 -213 214 30 368 156
440 360 22 62 23 80 27 423 4 345 3 359 -17 400 -25 52 -65 77 -124 77 -36 0
-51 -6 -76 -29 -28 -27 -31 -34 -31 -93 0 -75 -8 -110 -24 -105 -7 2 -13 49
-17 123 -4 65 -12 131 -18 146 -29 74 -153 90 -195 26 -8 -13 -18 -59 -21
-103 -17 -230 -29 -239 -44 -31 -8 111 -14 145 -29 165 -56 76 -164 64 -190
-22 -6 -17 -13 -92 -16 -166 -3 -74 -8 -136 -11 -140 -15 -14 -25 31 -26 114
-1 50 -4 188 -8 307 l-6 217 -35 36 c-19 19 -50 40 -70 45 -43 12 -38 12 -75
-4z"/>
</g>
</svg>
